<svg width="672" height="456" viewBox="0 0 672 456" fill="none" xmlns="http://www.w3.org/2000/svg">
<mask id="path-1-inside-1_1096_14" fill="white">
<rect width="672" height="456" rx="10"/>
</mask>
<rect width="672" height="456" rx="10" stroke="#326BC6" stroke-width="32" mask="url(#path-1-inside-1_1096_14)"/>
<rect y="108" width="672" height="60" fill="#326BC6"/>
<path d="M67.3007 286.223H102.588V328.721H107.081V348.437H98.512V337.29H66.3602V348.437H57.791V328.721H62.1104C64.2237 324.355 65.6171 319.292 66.2905 313.533C66.964 307.751 67.3007 300.447 67.3007 291.623V286.223ZM77.1239 294.792C77.1239 310.305 75.7189 321.615 72.909 328.721H92.3116V294.792H77.1239ZM112.62 318.271C112.62 315.019 113.421 311.873 115.023 308.831C116.626 305.788 118.89 303.466 121.816 301.864C124.765 300.261 128.051 299.46 131.674 299.46C137.271 299.46 141.857 301.283 145.434 304.929C149.01 308.552 150.798 313.138 150.798 318.689C150.798 324.285 148.987 328.93 145.364 332.622C141.764 336.291 137.224 338.126 131.744 338.126C128.353 338.126 125.114 337.36 122.025 335.827C118.96 334.294 116.626 332.053 115.023 329.104C113.421 326.132 112.62 322.52 112.62 318.271ZM122.652 318.793C122.652 322.462 123.523 325.272 125.265 327.223C127.006 329.174 129.154 330.149 131.709 330.149C134.263 330.149 136.4 329.174 138.118 327.223C139.86 325.272 140.731 322.439 140.731 318.723C140.731 315.101 139.86 312.314 138.118 310.363C136.4 308.413 134.263 307.437 131.709 307.437C129.154 307.437 127.006 308.413 125.265 310.363C123.523 312.314 122.652 315.124 122.652 318.793ZM186.259 285.039H192.912C192.703 287.988 191.925 290.229 190.579 291.762C189.255 293.271 185.969 294.026 180.72 294.026C180.093 294.026 179.466 294.014 178.839 293.991H177.585C174.474 293.991 171.942 294.34 169.992 295.036C168.041 295.71 166.439 297.033 165.184 299.007C163.954 300.981 163.315 304.163 163.269 308.552C164.708 305.835 166.566 303.803 168.842 302.456C171.141 301.109 173.87 300.436 177.028 300.436C181.882 300.436 185.992 302.328 189.359 306.114C192.727 309.876 194.41 314.241 194.41 319.211C194.41 324.39 192.634 328.837 189.081 332.553C185.551 336.268 180.929 338.126 175.217 338.126C171.292 338.126 167.843 337.186 164.871 335.304C161.898 333.423 159.774 330.857 158.496 327.606C157.219 324.332 156.58 318.921 156.58 311.373C156.58 302.502 158.206 296.128 161.457 292.25C164.732 288.371 170.433 286.432 178.561 286.432H183.507C184.877 286.432 185.795 285.968 186.259 285.039ZM166.543 319.072C166.543 322.439 167.379 325.11 169.051 327.084C170.746 329.034 172.813 330.01 175.252 330.01C177.876 330.01 180.024 329 181.696 326.979C183.391 324.936 184.239 322.311 184.239 319.107C184.239 315.832 183.379 313.196 181.661 311.199C179.966 309.179 177.864 308.169 175.356 308.169C172.918 308.169 170.839 309.156 169.121 311.13C167.402 313.104 166.543 315.751 166.543 319.072ZM209.911 311.582L201.029 309.98C202.027 306.404 203.746 303.756 206.184 302.038C208.623 300.319 212.245 299.46 217.052 299.46C221.418 299.46 224.669 299.983 226.806 301.028C228.942 302.05 230.44 303.362 231.3 304.964C232.182 306.543 232.623 309.458 232.623 313.707L232.519 325.133C232.519 328.384 232.67 330.788 232.972 332.344C233.297 333.876 233.889 335.525 234.748 337.29H225.064C224.809 336.64 224.495 335.676 224.124 334.399C223.961 333.818 223.845 333.435 223.775 333.249C222.103 334.875 220.315 336.094 218.411 336.907C216.507 337.72 214.475 338.126 212.315 338.126C208.506 338.126 205.499 337.093 203.293 335.026C201.11 332.959 200.019 330.346 200.019 327.188C200.019 325.098 200.518 323.24 201.516 321.615C202.515 319.966 203.908 318.712 205.697 317.853C207.508 316.97 210.109 316.204 213.499 315.554C218.074 314.694 221.244 313.893 223.009 313.15V312.175C223.009 310.294 222.545 308.958 221.616 308.169C220.687 307.356 218.933 306.95 216.356 306.95C214.614 306.95 213.256 307.298 212.28 307.995C211.305 308.668 210.515 309.864 209.911 311.582ZM223.009 319.525C221.755 319.943 219.769 320.442 217.052 321.023C214.335 321.603 212.559 322.172 211.723 322.729C210.446 323.635 209.807 324.785 209.807 326.178C209.807 327.548 210.318 328.732 211.34 329.731C212.361 330.73 213.662 331.229 215.241 331.229C217.006 331.229 218.69 330.648 220.292 329.487C221.476 328.605 222.254 327.525 222.626 326.248C222.881 325.412 223.009 323.821 223.009 321.475V319.525ZM242.412 300.296H263.835C268.224 300.296 271.51 301.097 273.693 302.7C275.876 304.302 276.967 306.717 276.967 309.945C276.967 312.012 276.363 313.812 275.156 315.345C273.971 316.877 272.473 317.899 270.662 318.41C273.217 319.037 275.121 320.21 276.375 321.928C277.629 323.647 278.256 325.528 278.256 327.571C278.256 330.451 277.199 332.796 275.086 334.608C272.973 336.396 269.849 337.29 265.716 337.29H242.412V300.296ZM252.27 315.658H258.575C261.617 315.658 263.811 315.275 265.158 314.509C266.528 313.742 267.214 312.535 267.214 310.886C267.214 309.33 266.575 308.227 265.298 307.577C264.044 306.903 261.803 306.566 258.575 306.566H252.27V315.658ZM252.27 331.02H260.003C262.79 331.02 264.822 330.683 266.099 330.01C267.376 329.336 268.015 328.129 268.015 326.387C268.015 324.576 267.283 323.333 265.82 322.66C264.357 321.963 261.512 321.615 257.286 321.615H252.27V331.02ZM285.954 300.296H295.359V323.531L310.408 300.296H320.022V337.29H310.617V313.638L295.359 337.29H285.954V300.296ZM325.7 300.296H359.176V308.204H347.332V337.29H337.544V308.204H325.7V300.296ZM365.271 300.296H375.06V315.658H384.883C388.738 315.658 391.699 315.937 393.766 316.494C395.833 317.051 397.551 318.259 398.921 320.117C400.291 321.951 400.976 324.088 400.976 326.526C400.976 330.103 399.746 332.796 397.284 334.608C394.846 336.396 391.176 337.29 386.276 337.29H365.271V300.296ZM375.06 331.09H384.186C387.043 331.09 388.866 330.625 389.655 329.696C390.468 328.767 390.875 327.664 390.875 326.387C390.875 324.599 390.178 323.368 388.784 322.695C387.414 322.021 384.964 321.684 381.434 321.684H375.06V331.09ZM62.7374 378.296H72.491V393.414C74.1166 393.228 75.2661 392.729 75.9396 391.916C76.613 391.104 77.4258 389.327 78.3779 386.587C79.632 382.941 81.0021 380.607 82.4884 379.585C83.9746 378.563 85.9253 378.052 88.3405 378.052C89.0836 378.052 90.3725 378.11 92.2071 378.227L92.2419 384.706C89.6642 384.706 88.0154 384.95 87.2955 385.437C86.5756 385.948 85.7976 387.469 84.9616 390C83.8237 393.414 82.1865 395.516 80.05 396.305C83.1386 397.165 85.7512 399.847 87.8876 404.352C88.0038 404.584 88.1315 404.828 88.2708 405.084L93.7398 415.29H83.2199L78.3431 404.596C77.3445 402.436 76.4737 401.055 75.7306 400.451C75.0106 399.824 73.9308 399.51 72.491 399.51V415.29H62.7374V378.296ZM106.176 389.582L97.2928 387.98C98.2914 384.404 100.01 381.756 102.448 380.038C104.887 378.319 108.509 377.46 113.317 377.46C117.682 377.46 120.934 377.983 123.07 379.028C125.207 380.05 126.704 381.362 127.564 382.964C128.446 384.543 128.887 387.458 128.887 391.707L128.783 403.133C128.783 406.384 128.934 408.788 129.236 410.344C129.561 411.876 130.153 413.525 131.012 415.29H121.328C121.073 414.64 120.759 413.676 120.388 412.399C120.225 411.818 120.109 411.435 120.04 411.249C118.367 412.875 116.579 414.094 114.675 414.907C112.771 415.72 110.739 416.126 108.579 416.126C104.771 416.126 101.763 415.093 99.5571 413.026C97.3741 410.959 96.2827 408.346 96.2827 405.188C96.2827 403.098 96.7819 401.24 97.7805 399.615C98.7791 397.966 100.172 396.712 101.961 395.853C103.772 394.97 106.373 394.204 109.763 393.554C114.338 392.694 117.508 391.893 119.273 391.15V390.175C119.273 388.294 118.809 386.958 117.88 386.169C116.951 385.356 115.198 384.95 112.62 384.95C110.878 384.95 109.52 385.298 108.544 385.995C107.569 386.668 106.779 387.864 106.176 389.582ZM119.273 397.525C118.019 397.943 116.034 398.442 113.317 399.023C110.599 399.603 108.823 400.172 107.987 400.729C106.71 401.635 106.071 402.785 106.071 404.178C106.071 405.548 106.582 406.732 107.604 407.731C108.626 408.73 109.926 409.229 111.505 409.229C113.27 409.229 114.954 408.648 116.556 407.487C117.74 406.605 118.518 405.525 118.89 404.248C119.145 403.412 119.273 401.821 119.273 399.475V397.525ZM138.293 378.296H147.419V383.73C148.603 381.873 150.206 380.363 152.226 379.202C154.247 378.041 156.488 377.46 158.949 377.46C163.245 377.46 166.891 379.144 169.887 382.511C172.883 385.878 174.381 390.569 174.381 396.584C174.381 402.761 172.871 407.568 169.852 411.005C166.833 414.419 163.176 416.126 158.88 416.126C156.836 416.126 154.978 415.72 153.306 414.907C151.657 414.094 149.916 412.701 148.081 410.727V429.363H138.293V378.296ZM147.976 396.166C147.976 400.323 148.801 403.4 150.45 405.397C152.098 407.371 154.107 408.358 156.476 408.358C158.752 408.358 160.644 407.452 162.154 405.641C163.663 403.806 164.418 400.811 164.418 396.654C164.418 392.776 163.64 389.896 162.084 388.015C160.528 386.134 158.601 385.193 156.302 385.193C153.91 385.193 151.924 386.122 150.345 387.98C148.766 389.815 147.976 392.543 147.976 396.166ZM176.819 378.296H210.295V386.204H198.451V415.29H188.663V386.204H176.819V378.296ZM213.36 378.296H223.775L232.623 404.561L241.262 378.296H251.399L238.336 413.897L236.002 420.341C235.143 422.501 234.319 424.15 233.529 425.287C232.763 426.425 231.869 427.343 230.847 428.039C229.848 428.759 228.606 429.317 227.119 429.711C225.656 430.106 223.996 430.304 222.138 430.304C220.257 430.304 218.411 430.106 216.6 429.711L215.729 422.048C217.261 422.35 218.643 422.501 219.874 422.501C222.15 422.501 223.833 421.827 224.925 420.48C226.016 419.157 226.852 417.461 227.433 415.395L213.36 378.296Z" fill="#326BC6"/>
<path d="M576 316V428" stroke="#326BC6" stroke-width="12"/>
<path d="M520 372H632" stroke="#326BC6" stroke-width="12"/>
</svg>
